<svg xmlns="http://www.w3.org/2000/svg" viewBox="0 0 1528.43 572.46"><g fill="currentColor"><path class="bnd_font" d="M1279.96 413.54V171.36c0-2.12 1.06-3.19 3.19-3.19h53.64c39.83 0 64.26 13.28 74.89 45.67 3.72 10.09 6.37 26.03 6.37 78.6 0 52.05-2.66 68.51-6.37 78.6-10.62 32.39-35.05 45.67-74.89 45.67h-53.64c-2.13.02-3.19-1.04-3.19-3.17m-62.67 54.17c0 3.19 2.12 5.31 5.31 5.31h129.06c62.14 0 103.56-27.62 120.56-80.2 5.84-18.05 9.03-37.71 9.03-100.38s-3.19-82.32-9.03-100.38c-17-52.58-58.42-80.2-120.56-80.2H1222.6c-3.19 0-5.31 2.12-5.31 5.31v350.54zm-333 0c0 3.19 2.12 5.31 5.31 5.31h46.2c3.19 0 5.31-2.12 5.31-5.31V219.16h2.12l147.65 248.55c2.12 3.72 4.78 5.31 9.03 5.31h48.33c3.19 0 5.31-2.12 5.31-5.31V117.19c0-3.19-2.12-5.31-5.31-5.31h-46.2c-3.19 0-5.31 2.12-5.31 5.31v249.08h-2.12L947.49 117.19c-2.12-3.72-4.78-5.31-9.03-5.31H889.6c-3.19 0-5.31 2.12-5.31 5.31v350.52zM640.52 414.6v-94c0-2.12 1.06-3.18 3.19-3.18h75.42c35.05 0 54.7 20.18 54.7 49.92 0 30.27-19.65 50.45-54.7 50.45h-75.42c-2.12 0-3.19-1.06-3.19-3.19m3.19-152.42c-2.12 0-3.19-1.06-3.19-3.18v-88.7c0-2.12 1.06-3.19 3.19-3.19h72.23c31.86 0 51.52 19.12 51.52 47.8 0 28.15-19.65 47.27-51.52 47.27h-72.23zm-65.85 205.53c0 3.19 2.12 5.31 5.31 5.31h129.06c79.13 0 124.28-34.52 124.28-106.22 0-44.08-26.03-72.76-48.33-81.26v-1.06c22.84-12.22 41.96-35.58 41.96-76.48 0-57.89-36.12-96.13-112.59-96.13H583.17c-3.19 0-5.31 2.12-5.31 5.31v350.53z"/><path d="M249.9 473.05c-27.14 0-52.77-5.62-76.17-15.88l-16.15 23.08c28.16 13.24 59.19 20.52 92.32 20.52 33.3 0 63.77-6.89 92.05-20.26l-16.29-23.17c-23.83 10.21-48.44 15.71-75.76 15.71zm52.49-49.07l-16.49-23.47c-11.43 3.51-23.63 5.4-36.19 5.4-12.57 0-24.69-1.96-36.12-5.47l-16.48 23.47c16.46 6.17 34.14 9.49 52.73 9.49 18.58.01 36.08-3.25 52.55-9.42z"/><path d="M443.81 181.31c-3.55-6.79-7.44-13.38-11.66-19.73-1.99-3-5.68-4.41-9.16-3.5l-23.19 6.03-42.89 11.15-40.21 10.45-19.29-94.83a8.435 8.435 0 00-8.26-6.71H188.52c-3.1 0-5.95 1.7-7.42 4.43l-21.96 41.06 34.03 8.78-9.96 47.4-39.9-10.37-43.35-11.27-23.18-6.03a8.46 8.46 0 00-9.17 3.5c-4.21 6.35-8.1 12.94-11.65 19.73-15.75 30.17-24.66 64.45-24.66 100.77 0 73.15 36.12 138.02 91.46 177.73l15.71-22.69c-48.27-34.67-79.45-91.2-79.45-155.04 0-33.98 8.66-65.13 24.12-92.88l122.5 30.53 17.18-92.7c.66-3.72-.49-7.4-4.63-9.07l-19.33-5.01.63-1.15h74.21l20.4 107.93 122.11-30.33c15.66 27.69 24.57 58.66 24.57 92.68 0 63.66-31.72 120.42-79.76 155.11l15.96 22.61c55.12-39.73 91.53-104.75 91.53-177.73 0-36.35-8.93-70.66-24.7-100.85z"/><path d="M302.37 257.98l-1.08.29c3.26 7.11 5.1 15.01 5.1 23.34 0 18.61-8.39 35.67-22.37 45.9l16.04 22.6c21.05-15.26 34.06-40.57 34.06-68.49 0-10.62-2.01-20.78-5.63-30.14l-26.12 6.5zm64.4-16.1c4.36 12.61 6.75 26.12 6.75 40.19 0 41.07-20.12 77.79-51.08 100.22l16.04 22.6c38.04-27.45 62.77-72.43 62.77-122.82 0-16.38-2.64-32.14-7.48-46.92l-27 6.73zm-169.21 16.1l1.08.29c-3.26 7.11-5.28 15.01-5.28 23.34 0 18.61 8.5 35.67 22.48 45.9l-16.04 22.6c-21.05-15.26-34.15-40.57-34.15-68.49 0-10.62 2.18-20.78 5.8-30.14l26.11 6.5zm-64.4-16.1a122.726 122.726 0 00-6.75 40.19c0 41.07 19.85 77.74 50.81 100.17l-16.04 22.6c-38.04-27.45-62.5-72.38-62.5-122.77 0-16.38 2.64-32.14 7.48-46.92l27 6.73zM31.23 59.95v1.5m0 3.03v10.59m0 1.51v434.28m0 1.51v1.5M468.44 59.95v1.5m0 3.03v10.59m0 1.51v434.28m0 1.51v1.5M18.02 111.92h1.5m2.99 0h10.48m1.49 0h1471.06m1.5 0h1.5M18.02 473.01h1.5m2.99 0h10.48m1.49 0h1471.06m1.5 0h1.5M577.86 59.95v1.5m0 3.03v10.59m0 1.51v434.28m0 1.51v1.5m903.48-453.34v1.5m0 3.02v10.6m0 1.51v434.27m0 1.52v1.5"/></g></svg>